# xmcd
#
# Track frame offsets:
#	150
#	14010
#	30763
#	42399
#	54405
#
# Disc length: 909 seconds
#
# Revision: 0
# Processed by: cddbd v1.5.2PL0 Copyright (c) Steve Scherf et al.
# Submitted via: EasyCDDAExtractor 12.0.7.1
#
DISCID=34038b05
DTITLE=4 Broz By Broz
DYEAR=2011
DGENRE=Rap
TTITLE0=The Get Down
TTITLE1=3 on the Mic
TTITLE2=Meditationz
TTITLE3=Ragin' at Half Mast
TTITLE4=Cool Dudes
EXTD=
EXTT0=
EXTT1=
EXTT2=
EXTT3=
EXTT4=
PLAYORDER=
